<svg width="314" height="337" viewBox="0 0 314 337" fill="none" xmlns="http://www.w3.org/2000/svg">
<path fill-rule="evenodd" clip-rule="evenodd" d="M130.419 1.3043e-06C55.5937 18.0279 0 85.4028 0 165.762C0 259.927 76.3354 336.262 170.5 336.262C230.456 336.262 283.183 305.316 313.581 258.524C300.727 261.622 287.305 263.262 273.5 263.262C179.335 263.262 103 186.927 103 92.7622C103 58.5534 113.075 26.6976 130.419 1.3043e-06ZM65 105.262C65 108.576 62.3137 111.262 59 111.262C55.6863 111.262 53 108.576 53 105.262C53 101.949 55.6863 99.2622 59 99.2622C62.3137 99.2622 65 101.949 65 105.262ZM206 314.262C209.314 314.262 212 311.576 212 308.262C212 304.949 209.314 302.262 206 302.262C202.686 302.262 200 304.949 200 308.262C200 311.576 202.686 314.262 206 314.262ZM99 233.262C99 236.576 96.3137 239.262 93 239.262C89.6863 239.262 87 236.576 87 233.262C87 229.949 89.6863 227.262 93 227.262C96.3137 227.262 99 229.949 99 233.262ZM87 192.262C99.1503 192.262 109 182.413 109 170.262C109 158.112 99.1503 148.262 87 148.262C74.8497 148.262 65 158.112 65 170.262C65 182.413 74.8497 192.262 87 192.262ZM24 143.262C24 146.024 21.7614 148.262 19 148.262C16.2386 148.262 14 146.024 14 143.262C14 140.501 16.2386 138.262 19 138.262C21.7614 138.262 24 140.501 24 143.262ZM39 262.262C40.6569 262.262 42 260.919 42 259.262C42 257.605 40.6569 256.262 39 256.262C37.3431 256.262 36 257.605 36 259.262C36 260.919 37.3431 262.262 39 262.262ZM273 283.262C274.657 283.262 276 281.919 276 280.262C276 278.605 274.657 277.262 273 277.262C271.343 277.262 270 278.605 270 280.262C270 281.919 271.343 283.262 273 283.262ZM149 305.262C149 306.919 147.657 308.262 146 308.262C144.343 308.262 143 306.919 143 305.262C143 303.605 144.343 302.262 146 302.262C147.657 302.262 149 303.605 149 305.262ZM139.5 262.262C144.747 262.262 149 258.009 149 252.762C149 247.516 144.747 243.262 139.5 243.262C134.253 243.262 130 247.516 130 252.762C130 258.009 134.253 262.262 139.5 262.262ZM87 48.7622C87 54.0089 82.7467 58.2622 77.5 58.2622C72.2533 58.2622 68 54.0089 68 48.7622C68 43.5155 72.2533 39.2622 77.5 39.2622C82.7467 39.2622 87 43.5155 87 48.7622Z" fill="#C0CAF5"/>
</svg>
